<mxfile host="app.diagrams.net" modified="2023-11-30T05:32:37.235Z" agent="Mozilla/5.0 (Macintosh; Intel Mac OS X 10_15_7) AppleWebKit/537.36 (KHTML, like Gecko) Chrome/119.0.0.0 Safari/537.36" etag="e_XWDsW1Zf1PkESIxgPA" version="22.1.5" type="google">
  <diagram name="Página-1" id="NIw71iqLUoSIaNHsiA6v">
    <mxGraphModel dx="1434" dy="822" grid="0" gridSize="10" guides="1" tooltips="1" connect="1" arrows="1" fold="1" page="1" pageScale="1" pageWidth="827" pageHeight="1169" math="0" shadow="0">
      <root>
        <mxCell id="0" />
        <mxCell id="1" parent="0" />
        <mxCell id="jXrsaV16BRQiqqE_KaRA-1" value="AWS Cloud" style="points=[[0,0],[0.25,0],[0.5,0],[0.75,0],[1,0],[1,0.25],[1,0.5],[1,0.75],[1,1],[0.75,1],[0.5,1],[0.25,1],[0,1],[0,0.75],[0,0.5],[0,0.25]];outlineConnect=0;gradientColor=none;html=1;whiteSpace=wrap;fontSize=12;fontStyle=0;container=0;pointerEvents=0;collapsible=0;recursiveResize=0;shape=mxgraph.aws4.group;grIcon=mxgraph.aws4.group_aws_cloud_alt;strokeColor=#232F3E;fillColor=none;verticalAlign=top;align=left;spacingLeft=30;fontColor=#232F3E;dashed=0;" vertex="1" parent="1">
          <mxGeometry x="210" y="400" width="500" height="480" as="geometry" />
        </mxCell>
        <mxCell id="jXrsaV16BRQiqqE_KaRA-4" value="ApiGateway" style="sketch=0;points=[[0,0,0],[0.25,0,0],[0.5,0,0],[0.75,0,0],[1,0,0],[0,1,0],[0.25,1,0],[0.5,1,0],[0.75,1,0],[1,1,0],[0,0.25,0],[0,0.5,0],[0,0.75,0],[1,0.25,0],[1,0.5,0],[1,0.75,0]];outlineConnect=0;fontColor=#232F3E;fillColor=#E7157B;strokeColor=#ffffff;dashed=0;verticalLabelPosition=bottom;verticalAlign=top;align=center;html=1;fontSize=12;fontStyle=0;aspect=fixed;shape=mxgraph.aws4.resourceIcon;resIcon=mxgraph.aws4.api_gateway;" vertex="1" parent="1">
          <mxGeometry x="320" y="680" width="45" height="45" as="geometry" />
        </mxCell>
        <mxCell id="jXrsaV16BRQiqqE_KaRA-13" style="edgeStyle=orthogonalEdgeStyle;rounded=0;orthogonalLoop=1;jettySize=auto;html=1;" edge="1" parent="1" source="jXrsaV16BRQiqqE_KaRA-5" target="jXrsaV16BRQiqqE_KaRA-8">
          <mxGeometry relative="1" as="geometry" />
        </mxCell>
        <mxCell id="jXrsaV16BRQiqqE_KaRA-5" value="Lambda&lt;br&gt;(ler_todos_feedbacks)" style="sketch=0;points=[[0,0,0],[0.25,0,0],[0.5,0,0],[0.75,0,0],[1,0,0],[0,1,0],[0.25,1,0],[0.5,1,0],[0.75,1,0],[1,1,0],[0,0.25,0],[0,0.5,0],[0,0.75,0],[1,0.25,0],[1,0.5,0],[1,0.75,0]];outlineConnect=0;fontColor=#232F3E;fillColor=#ED7100;strokeColor=#ffffff;dashed=0;verticalLabelPosition=bottom;verticalAlign=top;align=center;html=1;fontSize=12;fontStyle=0;aspect=fixed;shape=mxgraph.aws4.resourceIcon;resIcon=mxgraph.aws4.lambda;" vertex="1" parent="1">
          <mxGeometry x="488.27" y="680" width="45" height="45" as="geometry" />
        </mxCell>
        <mxCell id="jXrsaV16BRQiqqE_KaRA-17" style="edgeStyle=orthogonalEdgeStyle;rounded=0;orthogonalLoop=1;jettySize=auto;html=1;" edge="1" parent="1" source="jXrsaV16BRQiqqE_KaRA-3" target="jXrsaV16BRQiqqE_KaRA-2">
          <mxGeometry relative="1" as="geometry" />
        </mxCell>
        <mxCell id="jXrsaV16BRQiqqE_KaRA-3" value="CloudFront" style="sketch=0;points=[[0,0,0],[0.25,0,0],[0.5,0,0],[0.75,0,0],[1,0,0],[0,1,0],[0.25,1,0],[0.5,1,0],[0.75,1,0],[1,1,0],[0,0.25,0],[0,0.5,0],[0,0.75,0],[1,0.25,0],[1,0.5,0],[1,0.75,0]];outlineConnect=0;fontColor=#232F3E;fillColor=#8C4FFF;strokeColor=#ffffff;dashed=0;verticalLabelPosition=bottom;verticalAlign=top;align=center;html=1;fontSize=12;fontStyle=0;aspect=fixed;shape=mxgraph.aws4.resourceIcon;resIcon=mxgraph.aws4.cloudfront;" vertex="1" parent="1">
          <mxGeometry x="320" y="470" width="45" height="45" as="geometry" />
        </mxCell>
        <mxCell id="jXrsaV16BRQiqqE_KaRA-2" value="S3&lt;br&gt;(Flutter)" style="sketch=0;outlineConnect=0;fontColor=#232F3E;gradientColor=none;fillColor=#7AA116;strokeColor=none;dashed=0;verticalLabelPosition=bottom;verticalAlign=top;align=center;html=1;fontSize=12;fontStyle=0;aspect=fixed;pointerEvents=1;shape=mxgraph.aws4.bucket_with_objects;" vertex="1" parent="1">
          <mxGeometry x="488.27" y="470" width="43.27" height="45" as="geometry" />
        </mxCell>
        <mxCell id="jXrsaV16BRQiqqE_KaRA-7" value="Lambda&lt;br&gt;(enviar_feedback)" style="sketch=0;points=[[0,0,0],[0.25,0,0],[0.5,0,0],[0.75,0,0],[1,0,0],[0,1,0],[0.25,1,0],[0.5,1,0],[0.75,1,0],[1,1,0],[0,0.25,0],[0,0.5,0],[0,0.75,0],[1,0.25,0],[1,0.5,0],[1,0.75,0]];outlineConnect=0;fontColor=#232F3E;fillColor=#ED7100;strokeColor=#ffffff;dashed=0;verticalLabelPosition=bottom;verticalAlign=top;align=center;html=1;fontSize=12;fontStyle=0;aspect=fixed;shape=mxgraph.aws4.resourceIcon;resIcon=mxgraph.aws4.lambda;" vertex="1" parent="1">
          <mxGeometry x="488.27" y="780" width="45" height="45" as="geometry" />
        </mxCell>
        <mxCell id="jXrsaV16BRQiqqE_KaRA-8" value="DynamoDB" style="sketch=0;points=[[0,0,0],[0.25,0,0],[0.5,0,0],[0.75,0,0],[1,0,0],[0,1,0],[0.25,1,0],[0.5,1,0],[0.75,1,0],[1,1,0],[0,0.25,0],[0,0.5,0],[0,0.75,0],[1,0.25,0],[1,0.5,0],[1,0.75,0]];outlineConnect=0;fontColor=#232F3E;fillColor=#C925D1;strokeColor=#ffffff;dashed=0;verticalLabelPosition=bottom;verticalAlign=top;align=center;html=1;fontSize=12;fontStyle=0;aspect=fixed;shape=mxgraph.aws4.resourceIcon;resIcon=mxgraph.aws4.dynamodb;" vertex="1" parent="1">
          <mxGeometry x="630" y="680" width="45" height="45" as="geometry" />
        </mxCell>
        <mxCell id="jXrsaV16BRQiqqE_KaRA-12" style="edgeStyle=orthogonalEdgeStyle;rounded=0;orthogonalLoop=1;jettySize=auto;html=1;startArrow=classic;startFill=1;" edge="1" parent="1" source="jXrsaV16BRQiqqE_KaRA-6" target="jXrsaV16BRQiqqE_KaRA-8">
          <mxGeometry relative="1" as="geometry">
            <Array as="points">
              <mxPoint x="590" y="603" />
              <mxPoint x="590" y="703" />
            </Array>
          </mxGeometry>
        </mxCell>
        <mxCell id="jXrsaV16BRQiqqE_KaRA-6" value="Lambda&lt;br&gt;(ler_feedback)" style="sketch=0;points=[[0,0,0],[0.25,0,0],[0.5,0,0],[0.75,0,0],[1,0,0],[0,1,0],[0.25,1,0],[0.5,1,0],[0.75,1,0],[1,1,0],[0,0.25,0],[0,0.5,0],[0,0.75,0],[1,0.25,0],[1,0.5,0],[1,0.75,0]];outlineConnect=0;fontColor=#232F3E;fillColor=#ED7100;strokeColor=#ffffff;dashed=0;verticalLabelPosition=bottom;verticalAlign=top;align=center;html=1;fontSize=12;fontStyle=0;aspect=fixed;shape=mxgraph.aws4.resourceIcon;resIcon=mxgraph.aws4.lambda;" vertex="1" parent="1">
          <mxGeometry x="488.27" y="580" width="45" height="45" as="geometry" />
        </mxCell>
        <mxCell id="jXrsaV16BRQiqqE_KaRA-9" style="edgeStyle=orthogonalEdgeStyle;rounded=0;orthogonalLoop=1;jettySize=auto;html=1;entryX=0;entryY=0.5;entryDx=0;entryDy=0;entryPerimeter=0;" edge="1" parent="1" source="jXrsaV16BRQiqqE_KaRA-4" target="jXrsaV16BRQiqqE_KaRA-6">
          <mxGeometry relative="1" as="geometry" />
        </mxCell>
        <mxCell id="jXrsaV16BRQiqqE_KaRA-10" style="edgeStyle=orthogonalEdgeStyle;rounded=0;orthogonalLoop=1;jettySize=auto;html=1;entryX=0;entryY=0.5;entryDx=0;entryDy=0;entryPerimeter=0;" edge="1" parent="1" source="jXrsaV16BRQiqqE_KaRA-4" target="jXrsaV16BRQiqqE_KaRA-5">
          <mxGeometry relative="1" as="geometry" />
        </mxCell>
        <mxCell id="jXrsaV16BRQiqqE_KaRA-11" style="edgeStyle=orthogonalEdgeStyle;rounded=0;orthogonalLoop=1;jettySize=auto;html=1;entryX=0;entryY=0.5;entryDx=0;entryDy=0;entryPerimeter=0;" edge="1" parent="1" source="jXrsaV16BRQiqqE_KaRA-4" target="jXrsaV16BRQiqqE_KaRA-7">
          <mxGeometry relative="1" as="geometry" />
        </mxCell>
        <mxCell id="jXrsaV16BRQiqqE_KaRA-14" style="edgeStyle=orthogonalEdgeStyle;rounded=0;orthogonalLoop=1;jettySize=auto;html=1;entryX=0;entryY=0.5;entryDx=0;entryDy=0;entryPerimeter=0;startArrow=classic;startFill=1;" edge="1" parent="1" source="jXrsaV16BRQiqqE_KaRA-7" target="jXrsaV16BRQiqqE_KaRA-8">
          <mxGeometry relative="1" as="geometry">
            <Array as="points">
              <mxPoint x="590" y="803" />
              <mxPoint x="590" y="703" />
            </Array>
          </mxGeometry>
        </mxCell>
        <mxCell id="jXrsaV16BRQiqqE_KaRA-15" value="Usuário" style="sketch=0;outlineConnect=0;gradientColor=none;fontColor=#545B64;strokeColor=none;fillColor=#879196;dashed=0;verticalLabelPosition=bottom;verticalAlign=top;align=center;html=1;fontSize=12;fontStyle=0;aspect=fixed;shape=mxgraph.aws4.illustration_desktop;pointerEvents=1" vertex="1" parent="1">
          <mxGeometry x="120" y="585" width="49.45" height="45" as="geometry" />
        </mxCell>
        <mxCell id="jXrsaV16BRQiqqE_KaRA-16" style="edgeStyle=orthogonalEdgeStyle;rounded=0;orthogonalLoop=1;jettySize=auto;html=1;entryX=0;entryY=0.5;entryDx=0;entryDy=0;entryPerimeter=0;" edge="1" parent="1" source="jXrsaV16BRQiqqE_KaRA-15" target="jXrsaV16BRQiqqE_KaRA-3">
          <mxGeometry relative="1" as="geometry" />
        </mxCell>
        <mxCell id="jXrsaV16BRQiqqE_KaRA-18" style="edgeStyle=orthogonalEdgeStyle;rounded=0;orthogonalLoop=1;jettySize=auto;html=1;entryX=0;entryY=0.5;entryDx=0;entryDy=0;entryPerimeter=0;" edge="1" parent="1" source="jXrsaV16BRQiqqE_KaRA-15" target="jXrsaV16BRQiqqE_KaRA-4">
          <mxGeometry relative="1" as="geometry" />
        </mxCell>
      </root>
    </mxGraphModel>
  </diagram>
</mxfile>
